<?xml version="1.0" standalone="no"?>
<!DOCTYPE svg PUBLIC "-//W3C//DTD SVG 1.1//EN" "http://www.w3.org/Graphics/SVG/1.1/DTD/svg11.dtd" >
<!--
2013-9-30: Created.
-->
<svg>
<metadata>
Created by iconfont
</metadata>
<defs>

<font id="iconfont" horiz-adv-x="1024" >
  <font-face
    font-family="iconfont"
    font-weight="500"
    font-stretch="normal"
    units-per-em="1024"
    ascent="896"
    descent="-128"
  />
    <missing-glyph />
    
    <glyph glyph-name="ling" unicode="&#58883;" d="M207.698113 204.843911s4.391081 355.67753 26.346484 390.806175 87.821612 118.559177 136.123499 136.123499 70.25729 100.994854 70.25729 100.994854 114.168096 39.519726 149.296741 0S655.588336 731.773585 655.588336 731.773585 826.84048 641.317324 809.276158 384c-4.391081-78.161235 0.878216-201.111492 0.878216-201.111492s108.898799-43.910806 108.898799-79.039451-21.955403-92.212693-21.955403-92.212693h-764.048027s-43.910806 79.039451-21.955403 105.385934 96.603774 87.821612 96.603773 87.821613zM852.308748 212.747856V478.847341c0 123.828473-66.744425 223.066895-170.373928 274.881647C660.857633 834.524871 593.234991 895.121784 511.560892 895.121784c-79.039451 0-143.149228-57.962264-163.348199-137.879932-108.020583-50.936535-177.399657-151.931389-177.399657-278.394511v-266.099485C110.216123 198.696398 67.183533 149.516295 67.183533 87.16295v-45.667238c0-38.641509 32.493997-70.25729 72.891939-70.25729h301.22813c-1.756432-7.025729-4.391081-14.051458-4.391081-21.955403 0-42.154374 34.250429-75.526587 75.526587-75.526587 42.154374 0 75.526587 34.250429 75.526587 75.526587 0 7.903945-2.634648 14.929674-4.391081 21.955403H883.924528c40.397942 0 72.891938 31.61578 72.891939 70.25729v45.667238c0 61.475129-42.154374 110.655232-104.507719 125.584906zM511.560892 819.595197c26.346484 0 50.058319-12.295026 68.500858-31.61578-21.955403 3.512864-44.789022 6.147513-68.500858 6.147513-22.833619 0-43.910806-1.756432-64.987993-5.269297 16.686106 18.442539 39.519726 30.737564 64.987993 30.737564z m369.728988-772.830188l-738.57976-5.269297v45.667238c0 31.61578 26.346484 53.571184 66.744425 53.571184h37.763294V478.847341c0 140.51458 108.898799 238.874786 265.221269 238.874786 156.32247 0 265.221269-98.360206 265.221269-238.874786v-295.958833H409.687822c-21.077187 0-37.763293-16.686106-37.763294-37.763294s16.686106-37.763293 37.763294-37.763293h466.332761c2.634648-6.147513 4.391081-12.295026 4.391081-20.198971v-40.397941z m0 0"  horiz-adv-x="1024" />

    
    <glyph glyph-name="lingdang" unicode="&#59100;" d="M940.284 75.055c-3.556 82.633-44.788 155.954-106.89 203.186V502.483c0 129.524-92.658 238.481-215.106 264.225v5.127c0 59.084-48.456 107.425-107.68 107.425-59.226 0-107.682-48.341-107.682-107.425v-5.127c-122.447-25.744-215.105-134.7-215.105-264.225v-224.242C125.72 231.01 84.487 157.688 80.93 75.055h106.89v-0.722h645.575v0.722h106.888z m-452.396-194.82h26.731c70.064 0 128.318 52.85 136.786 120.555H370.111c8.468-67.705 66.721-120.554 136.787-120.554h-19.01z"  horiz-adv-x="1024" />

    
    <glyph glyph-name="lingdang1" unicode="&#58934;" d="M513 849c17.578 0 31.176-5.051 42.793-15.895l0.147-0.138 0.148-0.136c8.764-8.035 13.892-17.53 16.137-29.881l5.374-29.559 29.36-6.369c31.099-6.746 59.811-17.081 85.339-30.715a282.64 282.64 0 0 0 68.159-50.903l0.021-0.022 0.022-0.022c25.786-26.077 47.584-58.462 64.79-96.255 17.784-39.066 31.185-85.007 39.828-136.546l0.031-0.189 0.033-0.189c7.57-42.895 11.887-84.699 12.828-124.25 0.99-41.451 1.49-77.09 1.49-105.931v-3c0-23.489 10.366-43.684 29.19-56.863l0.964-0.675 0.997-0.623c23.556-14.721 35.807-24.136 41.973-29.493 8.393-7.61 14.614-16.306 19.016-26.575 4.616-10.769 6.86-21.651 6.86-33.271 0-7.86-2.392-10.251-3.819-11.681-2.276-2.275-5.341-4.425-12.219-4.819H606.047l-1.52-43.426c-0.934-26.683-9.718-47.354-27.644-65.052-17.485-17.264-38.565-26.265-64.402-27.486-26.486 1.223-47.88 10.223-65.365 27.486-17.699 17.474-26.158 37.896-26.623 64.271l-0.78 44.207H59.665c-4.914 0.335-7.436 1.91-9.845 4.319-1.884 1.885-3.91 4.418-4.314 10.678 0.137 11.299 2.598 22.104 7.513 32.996 4.97 11.016 11.763 20.122 20.767 27.841l0.168 0.145 0.167 0.146c5.878 5.14 18.142 14.358 43.188 29.085l0.693 0.407 0.678 0.432c20.222 12.884 31.82 34.007 31.82 57.952v7.336l-0.079 1.333c-3.812 64.156 0.455 143.007 12.682 234.362 5.708 42.648 17.316 83.141 34.502 120.354 17.074 36.97 40.212 71.917 68.785 103.888a277.32 277.32 0 0 0 66.5 50.136c25.168 13.597 53.51 23.904 84.237 30.633l29.285 6.413 5.362 29.495c2.184 12.011 7.413 21.311 16.455 29.268l0.218 0.192 0.216 0.195C481.046 843.791 495.135 849 513 849m0 45c-29 0-53.83-9.33-74.5-28-16.67-14.67-27-33-31-55-70-15.33-128-46.67-174-94-64-71.33-102.33-154.33-115-249s-17-175.67-13-243v-6c0-8.67-3.67-15.33-11-20-22.67-13.33-39.33-24.67-50-34-14-12-24.83-26.5-32.5-43.5S0.5 87 0.5 69c0.67-16.67 6.5-30.5 17.5-41.5s24.5-16.83 40.5-17.5h317c0.67-38 14-69.83 40-95.5s58.33-39.17 97-40.5c38 1.33 70 14.83 96 40.5s39.67 57.5 41 95.5h314c17.33 0.67 31.67 6.67 43 18s17 25.83 17 43.5-3.5 34.67-10.5 51-17.17 30.5-30.5 42.5c-10.67 9.33-26.67 20.67-48 34-6.67 4.67-10 11.33-10 20v3c0 29.33-0.5 65-1.5 107s-5.5 85.67-13.5 131c-18.67 111.33-57.67 197-117 257-46.67 47.33-105.33 78.67-176 94-4 22-14 40.33-30 55C566.5 884.67 542 894 513 894zM512.5 849c16.67 0 30.67-5.33 42-16 5.33-4.67 9.33-10 12-16-17.33 2.67-35.33 4-54 4s-37-1.33-55-4c4.67 10 11.83 17.83 21.5 23.5s20.83 8.5 33.5 8.5m0 45c-20.718 0-39.647-4.939-56.261-14.681-17.637-10.341-30.931-24.902-39.512-43.279l-35.413-75.833 82.789 12.28C479.818 774.818 496.102 776 512.5 776c16.316 0 32.18-1.169 47.148-3.475l81.482-12.553-33.518 75.323c-5.216 11.722-12.899 22.151-22.845 31.01C565.236 884.426 540.265 894 512.5 894zM603.5 10c-1.33-25.33-10.5-46.5-27.5-63.5s-38.17-25.83-63.5-26.5c-26 0.67-47.5 9.5-64.5 26.5s-25.83 38.17-26.5 63.5h182m47.425 45H375.294l1.221-46.189c0.481-18.176 4.041-35.339 10.581-51.014 6.668-15.979 16.453-30.486 29.083-43.117 12.691-12.69 27.359-22.508 43.595-29.178 15.782-6.483 33.132-10.012 51.566-10.487l1.175-0.03 1.174 0.031c18.176 0.48 35.34 4.041 51.014 10.581 15.979 6.668 30.486 16.453 43.117 29.083 12.484 12.485 22.275 26.806 29.1 42.563 6.699 15.468 10.574 32.425 11.519 50.398L650.925 55zM441.5 727c6.67 0 12-2.17 16-6.5s6-9.83 6-16.5-2-12-6-16-9.33-6-16-6c-3.33 0-11-3.17-23-9.5s-25.67-16.33-41-30-28-27.83-38-42.5-16.67-28.67-20-42c-0.67-5.33-3-9.67-7-13s-8.67-5-14-5l-5 1c-6.67 2-11.5 5.33-14.5 10s-4.17 10.33-3.5 17c6 24.67 16.5 46.5 31.5 65.5s28.5 33.5 40.5 43.5c14 12.67 29.67 24 47 34s33 15.33 47 16z"  horiz-adv-x="1024" />

    
    <glyph glyph-name="lingdang2" unicode="&#58932;" d="M317.44 187.904H699.392c6.144 0 7.68 1.536 7.68 7.68V401.408c0 8.704 0 17.408-1.024 25.6-4.096 58.368-31.232 104.448-79.36 137.216-52.736 35.84-111.104 43.52-172.032 28.16C401.408 579.072 363.52 545.28 337.92 497.152c-16.384-30.72-20.992-64-20.992-97.792v-204.288c0-2.048 0.512-4.608 0.512-7.168zM893.44 121.856v-49.664h-762.88v49.152c3.072 0 5.632 0.512 8.704 0.512 17.92 0 35.84 0.512 53.76 0 7.68-0.512 10.24 2.048 10.24 10.24V402.432c0 35.84 3.584 70.656 15.36 104.448 30.208 85.504 87.04 146.432 169.984 181.76 95.744 40.448 190.464 35.328 280.576-14.848 86.528-48.128 137.216-123.392 149.504-222.72 1.536-13.312 2.56-26.624 2.56-40.448v-278.528c0-10.752 0-10.752 10.752-10.752 19.968 0.512 40.448 0.512 61.44 0.512z m-636.416-0.512h500.224c7.68 0 10.24 2.048 10.24 9.728-0.512 89.6 0 179.712 0 269.312 0 11.264-0.512 22.528-1.024 33.792-5.632 76.288-40.448 136.704-103.424 179.2C594.432 660.48 518.144 670.72 438.272 650.24c-70.656-16.896-120.32-61.44-153.6-123.904-21.504-39.936-27.648-83.456-27.648-128-0.512-89.088 0-178.176 0-267.264-0.512-3.072 0-5.632 0-9.728z m345.088-131.072v-52.736H421.888v52.736h180.224z m-10.24 774.656H431.616c4.608 36.352 42.496 66.56 81.92 65.536 43.52-0.512 75.776-35.84 78.336-65.536zM677.888 173.568h-52.224V437.248h52.224v-263.68z"  horiz-adv-x="1024" />

    
    <glyph glyph-name="lingdang3" unicode="&#59243;" d="M512 761.56097531c-181.463415 0-327.80487844-146.34146345-327.80487844-327.8048775v-175.60975594l-76.09756031-102.43902468v-49.75609782c0-26.34146343 23.41463437-49.75609781 49.75609687-49.75609781h708.29268375c26.34146343 0 49.75609781 23.41463437 49.75609688 49.75609781v49.75609782l-76.09756031 102.43902468v175.60975594c0 181.463415-146.34146345 327.80487844-327.80487844 327.8048775zM512 688.39024406c140.48780531 0 251.70731719-114.14634187 251.70731719-251.70731718v-175.60975594c0-17.56097531 5.85365812-32.19512156 14.63414624-46.82926875l61.46341501-81.95121938H184.19512156l61.46341501 81.95121938c8.78048812 11.70731719 14.63414625 29.2682925 14.63414624 46.82926875v175.60975594c0 137.56097531 111.21951187 251.70731719 251.70731719 251.70731718M512-19.902438749999988c-40.97560969 0-76.09756125 35.12195156-76.09756125 76.09756031h-76.09756031c0-84.87804844 67.31707313-152.19512156 152.19512156-152.19512156s152.19512156 67.31707313 152.19512156 152.19512156h-76.09756031c0-40.97560969-35.12195156-76.09756125-76.09756125-76.09756031zM512 688.39024406c-29.2682925 0-49.75609781 20.48780531-52.68292687 49.75609782s20.48780531 49.75609781 49.75609781 52.68292687h2.92682906c29.2682925 0 49.75609781-23.41463437 49.75609781-52.68292687s-23.41463437-49.75609781-49.75609781-49.75609782h114.14634187c5.85365812 14.63414625 11.70731719 32.19512156 11.70731625 49.75609782 0 70.24390219-55.60975594 125.85365812-125.85365812 125.85365812s-125.85365812-55.60975594-125.85365812-125.85365812c0-17.56097531 2.92682906-35.12195156 11.70731625-49.75609782H512z"  horiz-adv-x="1024" />

    
    <glyph glyph-name="lingdang-copy" unicode="&#58882;" d="M512 899.227c-283.376 0-515.227-231.853-515.227-515.227s231.853-515.227 515.227-515.227c283.376 0 515.227 231.853 515.227 515.227 0 283.376-231.853 515.227-515.227 515.227zM512 23.341000000000008c-41.219 0-72.133 30.914-72.133 72.133h144.263c0-41.219-30.914-72.133-72.133-72.133zM815.985 131.538h-613.121v36.066l72.133 72.133v195.787c0 113.349 77.285 206.091 185.482 231.853v25.762c0 30.914 25.762 51.523 51.523 51.523 30.914 0 51.523-25.762 51.523-51.523v-25.762c103.046-25.762 180.33-118.502 180.33-226.701v-200.939l72.133-72.133v-36.066z"  horiz-adv-x="1024" />

    
    <glyph glyph-name="xiaoxizhongxin" unicode="&#58905;" d="M1352.448 790.528l-613.973333-343.04c-40.789333-22.784-117.333333-22.784-158.122667 0L5.546667 768.682667A170.666667 170.666667 0 0 0 170.666667 896h1024a170.666667 170.666667 0 0 0 157.781333-105.472zM1365.333333 699.989333V42.666667a170.666667 170.666667 0 0 0-170.666666-170.666667H170.666667a170.666667 170.666667 0 0 0-170.666667 170.666667V674.048L538.794667 372.906667c66.56-37.205333 174.677333-37.205333 241.322666 0L1365.333333 699.989333z"  horiz-adv-x="1365" />

    
    <glyph glyph-name="xiaoxi" unicode="&#58925;" d="M1280 896a85.333333 85.333333 0 0 0 85.333333-85.333333v-853.333334a85.333333 85.333333 0 0 0-85.333333-85.333333H85.333333a85.333333 85.333333 0 0 0-85.333333 85.333333V810.666667a85.333333 85.333333 0 0 0 85.333333 85.333333h1194.666667z m0-137.642667l-512.512-366.08L768 384a85.333333 85.333333 0 0 0-75.349333-84.736L682.666667 298.66666699999996a85.333333 85.333333 0 0 0-84.906667 93.610666L85.333333 758.2719999999999V-42.66666699999996h1194.666667V758.357333zM1206.528 810.666667H158.72l488.704-349.013334a84.736 84.736 0 0 0 25.258667 7.082667L682.666667 469.333333c12.544 0 24.490667-2.730667 35.242666-7.68L1206.613333 810.666667z"  horiz-adv-x="1365" />

    
    <glyph glyph-name="bianji" unicode="&#58972;" d="M671.58528 674.79552c13.78816 0 24.97536-11.31008 24.97536-25.26208 0-13.95712-11.1872-25.27232-24.97536-25.27232H106.79808l24.97536 25.27232v-597.95968c0-41.66656 33.66912-75.60192 74.95168-75.60192h793.856l-24.98048-25.27232V434.6368c0 13.952 11.1872 25.26208 24.98048 25.26208 13.78816 0 24.97536-11.31008 24.97536-25.26208v-509.19424H206.72512c-68.83328 0-124.9024 56.51968-124.9024 126.1312V674.79552h589.76256z m235.97056 148.40832l15.07328 19.34848 19.5072-14.75072 128.81408-97.44896 20.224-15.29856-15.34976-20.28544-386.69824-511.104-4.50048-5.9392-6.97344-2.5088-143.6928-51.63008-34.23744-12.29824 0.90624 36.74112 3.68128 149.20704 0.20992 8.40192 5.14048 6.59968 397.89568 510.96576z m39.23968-31.26272l-397.89056-510.97088 5.34528 15.0016-3.6864-149.20704-33.32608 24.43264 143.6928 51.62496-11.4688-8.448 386.69824 511.09888 4.87424-35.57888-128.81408 97.44384 34.57536 4.60288z m-95.09888-114.72384l29.2608 40.95488 112.16384-81.98656-29.25568-40.95488-112.16896 81.98656z"  horiz-adv-x="1173" />

    
    <glyph glyph-name="bj" unicode="&#58910;" d="M295.317 362.44500000000005c0-6.533 0.653-15.023 1.633-19.596-71.848-16.656-81.972-20.248-88.176-23.84-0.981 4.57-4.246 15.348-6.859 21.227 6.206 1.307 13.39 9.473 22.534 21.555 5.227 6.205 16.656 22.861 29.394 43.763-34.944-4.899-42.456-6.532-46.701-8.817-1.307 4.572-5.227 16.002-7.839 21.881 5.552 1.307 10.777 9.472 17.309 20.574 6.532 10.778 28.739 53.232 40.169 93.076l23.188-8.49c-13.39-35.599-31.352-72.175-49.641-100.588l35.924 3.918c6.532 11.758 13.39 24.495 18.942 37.23l19.595-11.43c-17.961-35.598-40.496-71.848-63.356-101.566l53.884 11.103z m3.919-69.236c-32.658-13.389-66.623-27.434-93.077-38.211l-5.878 22.535c23.515 7.512 59.112 21.555 94.709 35.271l4.246-19.595z m44.415 127.694c-0.326-52.907-5.878-129.001-35.924-181.579-3.919 4.246-13.39 11.104-18.615 13.715 29.392 51.928 32.331 123.775 32.331 173.417v70.541h75.767c-3.592 9.798-8.818 21.228-14.043 30.372l22.861 6.859c6.858-11.432 13.716-26.454 16.982-37.231h62.376v-76.094H343.651z m144.676-27.432v-136.186c0-8.49-1.307-14.043-7.185-17.309-5.551-3.266-13.39-3.266-24.493-3.266-0.979 4.898-3.592 12.736-5.878 17.637h15.349c2.287 0 3.266 0.65 3.266 3.264v48.334h-24.167v-61.07H428.89v61.07h-23.514v-61.396h-16.33v61.396h-26.78v-69.234h-19.268V393.145h126.387v0.326h18.942z m-144.676 82.951v-34.943h119.203v34.943H343.651z m45.395-150.881v47.682h-26.78v-47.682h26.78z m39.843 0v47.682h-23.514v-47.682h23.514z m40.496 0v47.682h-24.167v-47.682h24.167zM652.264 314.437c-12.41-2.285-24.819-4.898-36.903-7.512v-71.848h-22.534v67.275c-22.207-4.246-43.108-8.49-60.745-12.084l-5.551 23.516c17.961 2.938 41.475 6.857 66.296 11.43v46.701h-29.393c-10.777 0-20.901-1.959-23.514-4.572-1.307 4.898-4.573 15.676-7.512 21.554 5.552 1.634 9.798 11.757 15.35 26.128 3.266 7.838 10.123 29.393 16.981 55.191h-35.597v23.188h40.823c2.938 12.737 5.551 25.474 7.184 38.537l23.841-4.898c-2.286-11.104-4.572-22.535-7.511-33.639h53.885v-23.188h-60.091c-7.512-27.433-16.654-53.885-25.799-76.094h31.352v49.641h22.534v-49.641h29.719v-22.207H615.36v-42.457l35.271 6.207 1.633-21.228z m172.434-37.558l-24.166-1.959v-41.148h-22.861v39.189c-48.334-3.918-96.016-7.838-130.633-10.451l-3.919 21.881 29.72 1.961V412.738h-21.881v20.248h171.781v-20.248h-22.207v-117.57l24.166 1.961v-20.25z m-22.207 175.376H669.898V521.49h132.593v-69.235z m-23.513 50.946h-86.545v-32.658h86.545v32.658z m-83.605-90.463v-28.086h82.298v28.086h-82.298z m0-74.787h82.298v28.412h-82.298v-28.412z m0-50.295c25.146 1.633 53.231 3.92 82.298 5.879v26.127h-82.298v-32.006zM917.354 608.11c18.881 0 36.695-7.415 50.159-20.88 13.465-13.464 20.88-31.278 20.88-50.16v-306.142c0-18.881-7.415-36.695-20.88-50.159-13.464-13.465-31.278-20.88-50.159-20.88H106.646c-18.881 0-36.695 7.415-50.16 20.88-13.465 13.464-20.88 31.278-20.88 50.159V537.071c0 18.881 7.415 36.695 20.88 50.16 13.464 13.465 31.278 20.88 50.16 20.88h810.708m0 13.999H106.646c-46.772 0-85.04-38.268-85.04-85.04v-306.142c0-46.771 38.268-85.039 85.04-85.039h810.708c46.771 0 85.039 38.268 85.039 85.039V537.071c0.001 46.772-38.267 85.039-85.039 85.039z"  horiz-adv-x="1024" />

    
    <glyph glyph-name="edit" unicode="&#58895;" d="M865.19292312-96h-692.50210593a140.84245969 140.84245969 0 0 0-140.69081719 140.69081719V723.30918281A140.84245969 140.84245969 0 0 0 172.69081719 864h452.08087593a16.19208094 16.19208094 0 1 0 1e-8-32.38416188H172.72451563A108.42459937 108.42459937 0 0 1 64.41786031 723.30918281v-678.66891281a108.42459937 108.42459937 0 0 1 108.30665532-108.30665625h692.50210593a108.42459937 108.42459937 0 0 1 108.27295688 108.30665625V502.29823125a16.19208094 16.19208094 0 1 0 32.38416187 0v-457.65796125a140.84245969 140.84245969 0 0 0-140.69081718-140.64027zM952.55602344 775.42375781l-86.70598125 69.55349531a39.24178594 39.24178594 0 0 1-55.16427938-6.08256093L395.36984 320.68070812999997a16.19208094 16.19208094 0 0 1-3.55518094-10.21061532l0.64026938-124.88626781a16.19208094 16.19208094 0 0 1 19.62931781-15.75400219l122.03875313 26.55433875a16.20892969 16.20892969 0 0 1 9.19966312 5.69502938l50.34540844 62.83066594a15.92249344 15.92249344 0 0 1 6.25105312 7.80117937l358.71946032 447.58213969a39.29233406 39.29233406 0 0 1-6.08256094 55.13058187z m-430.95198-548.60994187l-96.89974688-21.0951975-0.50547562 99.15754031 40.30328531 50.29486031 96.93344531-78.66891281zM933.36478531 740.51221594L581.70513875 301.77590531l-96.91659656 78.66891375 351.17101969 438.07919063a6.85762406 6.85762406 0 0 0 9.63774187 1.06150031l86.70598219-69.50294906a6.85762406 6.85762406 0 0 0 1.06149937-9.570345z"  horiz-adv-x="1038" />

    
    <glyph glyph-name="duihao" unicode="&#58900;" d="M30.122667 331.94666700000005a52.906667 52.906667 0 0 0-5.12 65.28l23.893333 32.426666a41.728 41.728 0 0 0 58.538667 8.277334l262.741333-201.386667c37.290667-28.586667 96.938667-27.306667 133.12 2.901333L1259.008 868.949333a47.616 47.616 0 0 0 62.464-2.56l13.824-13.653333a41.472 41.472 0 0 0-0.853333-60.074667l-835.84-822.613333a83.882667 83.882667 0 0 0-119.893334 1.194667L30.122667 331.94666700000005z"  horiz-adv-x="1365" />

    
    <glyph glyph-name="chahao" unicode="&#58894;" d="M1023.035952 725.092279l-852.12806-852.128061L0.241225 43.269303l852.248588 852.12806zM170.425782 896l852.128061-852.12806L852.248758-126.794727l-852.12806 852.248588z"  horiz-adv-x="1024" />

    
    <glyph glyph-name="qr" unicode="&#58890;" d="M904.76544-127.00160000000005H118.72256C53.71392-127.00160000000005 0.8192-74.10688000000005 0.8192-9.093119999999999V776.94976C0.8192 841.9584 53.7088 894.85312 118.72256 894.85312h786.04288c65.01376 0 117.90848-52.8896 117.90848-117.90336v-786.04288c0-65.01376-52.89472-117.90848-117.90848-117.90848zM118.72256 816.25088c-21.61152 0-39.30112-17.68448-39.30112-39.30112v-786.04288c0-21.78048 17.6896-39.30112 39.30112-39.30112h786.04288c21.78048 0 39.30112 17.68448 39.30112 39.30112V776.94976c0 21.61664-17.68448 39.30112-39.30112 39.30112H118.72256zM774.08768 571.5968c-15.39584 15.22688-40.28416 15.06304-55.51616-0.3328l-286.57664-289.6896-126.75072 130.3552c-15.22688 15.55456-40.12032 15.88224-55.51104 0.8192-15.55968-15.06816-15.88736-40.12032-0.8192-55.51616l154.752-159.00672c0-0.16384 0.16384-0.16384 0.32768-0.16384 0.16384-0.16384 0.16384-0.16384 0.16384-0.32768 2.4576-2.4576 5.56544-3.93216 8.51456-5.57056 1.47456-0.8192 2.78528-2.12992 4.25984-2.78016a38.99904 38.99904 0 0 1 14.8992-2.94912 38.1952 38.1952 0 0 1 14.74048 2.94912c1.47456 0.65024 2.78016 1.96096 4.096 2.61632 2.944 1.6384 6.05696 3.11296 8.50944 5.57056 0 0 0.16384 0.16384 0.16384 0.32768s0.16384 0.16384 0.32768 0.16384l314.74688 318.01856c15.22688 15.39072 15.06304 40.28416-0.32768 55.51104z"  horiz-adv-x="1024" />

    
    <glyph glyph-name="qx" unicode="&#59112;" d="M120.6784 882.1248c17.4592 3.328 35.328 3.4816 53.0432 3.6352h686.592c17.4592-0.256 35.328 0.3072 52.0704-5.4784 57.8048-15.9744 101.376-72.6528 101.3248-132.8128 0.1536-228.608 0-457.216 0.0512-685.8752-0.4096-31.9488 2.3552-65.792-11.4688-95.5904-19.4048-46.2848-66.048-79.4112-116.224-82.0736-47.872-2.4576-95.8464-1.4848-143.7696-1.6896-196.3008 0.0512-392.6528-0.1536-588.9536 0.1024-72.704-3.2768-141.824 59.0336-142.848 132.5568-0.5632 242.5856-0.2048 485.1712-0.1536 727.7568C7.0656 807.424 56.6272 870.912 120.6784 882.1248M134.656 812.544c-31.1808-6.144-55.04-38.2464-52.8384-69.8368 0.3072-239.104-0.1024-478.208 0.2048-717.2608-1.024-23.1424 10.6496-45.056 28.2624-59.4432 13.7728-10.8544 31.9488-11.7248 48.6912-12.0832 237.2096 0.1024 474.4192-0.1536 711.6288 0.1024 36.5056-2.7136 72.8576 29.184 71.5264 66.3552-0.1536 232.1408 0 464.3328-0.0512 696.4736-0.2048 19.8144 2.1504 40.6528-6.6048 59.136-11.52 26.88-42.752 39.4752-70.4512 39.0144-28.8768-1.536-57.7536-0.7168-86.6304-0.9216-214.5792 0.1024-429.1584 0-643.7376-1.536zM197.7344 665.9072c2.56 25.0368 36.2496 41.2672 55.7568 23.0912C339.7632 602.88 426.1376 516.864 512 430.2848c84.992 85.8624 170.1888 171.4688 255.744 256.7168 16.0256 17.3568 47.104 9.4208 55.5008-11.8784 9.728-19.2512-7.7824-37.0176-20.0704-49.92-81.2544-80.64-161.9456-161.9968-244.1216-241.664 80.896-80.7424 161.6384-161.6896 242.5856-242.4832 8.704-8.9088 18.6368-17.3056 23.7568-28.9792 4.1984-23.6032-18.5856-49.152-43.2128-42.2912-13.6192 6.2464-23.3984 18.1248-34.1504 28.1088-78.4384 79.4112-157.8496 157.8496-236.032 237.4656-81.7152-82.944-163.6864-165.632-246.3232-247.6544-10.0864-8.7552-20.7872-21.1456-35.6864-18.3808-15.5136 0.8704-26.3168 15.0016-31.8464 28.2624-3.2256 13.056 5.3248 24.7296 14.08 33.3312 84.3264 84.1728 168.448 168.4992 252.7232 252.6208-83.5584 81.7664-165.9904 164.7616-249.3952 246.784-10.0864 9.0624-18.8928 21.3504-17.8176 35.584z"  horiz-adv-x="1024" />

    
    <glyph glyph-name="quxiao" unicode="&#59149;" d="M455.6-12.1c18.5-2.6 37.2-3.9 56.1-3.9 220.8 0 400.5 179.7 400.5 400.5S732.5 785 511.7 785c-19.1 0-37.8-1.3-56.2-3.9-159.8-60.8-273.4-215.4-273.4-396.5 0.1-181.4 113.7-336 273.5-396.7zM377.3 225.5c-6 0-12.1 2.3-16.7 6.9-9.2 9.2-9.2 24.2 0 33.4l270.7 270.7c9.2 9.2 24.2 9.2 33.4 0s9.2-24.2 0-33.4L394 232.4c-4.6-4.6-10.7-6.9-16.7-6.9zM646.3 225.5c-6 0-12.1 2.3-16.7 6.9L358.9 503c-9.2 9.2-9.2 24.2 0 33.4s24.2 9.2 33.4 0L663 265.8c9.2-9.2 9.2-24.2 0-33.4-4.6-4.6-10.7-6.9-16.7-6.9zM184.8 90.7c-6.8 0-13.5 2.9-18.2 8.6-13.6 16.4-26.1 34-37.2 52.2-6.8 11.1-3.3 25.7 7.9 32.5 11.1 6.8 25.7 3.3 32.5-7.9 9.9-16.3 21.1-32 33.3-46.7 8.3-10 6.9-24.9-3.1-33.3-4.6-3.6-9.9-5.4-15.2-5.4zM511.4-63.3c-93.1 0-182.3 28.3-258 81.8-10.7 7.5-13.2 22.3-5.7 32.9 7.5 10.7 22.3 13.2 32.9 5.7 67.7-47.8 147.5-73.1 230.8-73.1 220.8 0 400.5 179.7 400.5 400.5S732.2 785 511.4 785 111 605.2 111 384.4c0-38.3 5.4-76.2 16.1-112.6 3.7-12.5-3.5-25.6-16.1-29.3-12.6-3.7-25.7 3.5-29.3 16-11.9 40.7-17.9 83.1-17.9 125.9 0 246.9 200.8 447.7 447.7 447.7s447.7-200.8 447.7-447.7c-0.1-246.9-200.9-447.7-447.8-447.7z"  horiz-adv-x="1024" />

    
    <glyph glyph-name="queren" unicode="&#59024;" d="M518.82763 46.12262799999996a327.22049 327.22049 0 1 0 231.200169 95.87582 327.58174 327.58174 0 0 0-231.272419-95.87582z m0 620.122204a292.901715 292.901715 0 1 1 292.684964-292.829465A293.118465 293.118465 0 0 1 518.75538 666.244832zM398.314542 390.68313l68.92655-68.926551 172.244126 189.439639 51.658788-51.658788-223.902914-241.170676L346.655754 338.952092l51.658788 51.731038zM467.674593 193.58498599999996L322.235236 338.952092l76.079306 76.079306L466.590842 346.89959799999997l172.316376 189.295138L715.275524 459.970931zM371.004022 338.952092L466.735342 243.220772l200.493897 215.883158-27.16602 27.16602-172.244126-189.511889-69.504551 69.504551zM489.566359-126.12149899999997A508.279122 508.279122 0 0 0 2.239752 402.315388c0.4335 10.693008 1.300501 21.675016 2.817752 35.330276l34.246525-4.046003c-1.372751-12.643759-2.239752-23.120017-2.601002-32.946024A473.815847 473.815847 0 0 1 491.30036-91.73047299999996zM714.336273-83.78296799999998L700.825513-52.20969400000001a473.743597 473.743597 0 0 1 229.249418 654.079729l30.489523 16.039511a508.206872 508.206872 0 0 0-245.65018-701.620264zM109.74783 635.032809l-28.900021 18.423763a508.351372 508.351372 0 0 0 730.375785 137.853101l-20.446765-27.74402a473.888097 473.888097 0 0 1-681.028999-128.532844zM199.699146 101.24941799999999a416.810555 416.810555 0 0 0 23.842518 588.982431c6.430255 5.924504 13.51076 11.921259 22.108516 18.857264l21.675016-26.87702c-8.019756-6.430255-14.450011-11.921259-20.302265-17.340012a382.34728 382.34728 0 0 1-21.675016-540.285896z"  horiz-adv-x="1024" />

    
    <glyph glyph-name="add" unicode="&#59167;" d="M985.6 422.4H550.4V857.6C550.4 876.8 531.2 896 512 896s-38.4-19.2-38.4-38.4v-435.2H38.4C19.2 422.4 0 403.2 0 384s19.2-38.4 38.4-38.4h435.2v-435.2c0-19.2 19.2-38.4 38.4-38.4s38.4 19.2 38.4 38.4V345.6h435.2c19.2 0 38.4 19.2 38.4 38.4s-19.2 38.4-38.4 38.4z"  horiz-adv-x="1024" />

    
    <glyph glyph-name="tianjia" unicode="&#59021;" d="M938.030545 896a85.643636 85.643636 0 0 0 85.457455-85.457455v-853.08509A85.643636 85.643636 0 0 0 938.030545-128H85.457455A86.388364 86.388364 0 0 0 0-42.03054499999996V810.542545A85.643636 85.643636 0 0 0 85.457455 896h852.57309z m-42.496-85.457455H128a42.356364 42.356364 0 0 1-42.496-42.496V0.46545500000001994a42.356364 42.356364 0 0 1 42.496-42.496H895.534545a42.356364 42.356364 0 0 1 42.496 42.496V768a42.356364 42.356364 0 0 1-42.496 42.496zM716.427636 322.83927300000005H307.060364c-33.792 0-61.44 27.648-61.44 61.44 0 33.745455 27.648 61.393455 61.44 61.393454h409.367272c33.792 0 61.44-27.648 61.44-61.44 0-33.745455-27.648-61.393455-61.44-61.393454zM450.327273 179.572364V588.9396360000001c0 33.792 27.648 61.44 61.44 61.44 33.745455 0 61.393455-27.648 61.393454-61.44v-409.367272c0-33.792-27.648-61.44-61.44-61.44-33.745455 0-61.393455 27.648-61.393454 61.44z"  horiz-adv-x="1024" />

    
    <glyph glyph-name="zengjia" unicode="&#58888;" d="M914.505-127.269H110.153C49.445-127.269 0.44-78.26300000000003 0.44-17.553999999999974V786.139C0.439 846.848 49.445 895.854 110.153 895.854h803.694c60.708 0 109.714-49.006 109.714-109.715v-803.693c0.658-60.709-48.274-109.715-109.056-109.715zM110.153 839.021a52.663 52.663 0 0 1-52.955-52.882v-803.693a52.663 52.663 0 0 1 52.955-52.883h803.694a52.663 52.663 0 0 1 52.882 52.883V786.139a52.663 52.663 0 0 1-52.882 52.883H110.153zM850.505 355.913H174.08a28.526 28.526 0 0 0-28.672 28.672 28.526 28.526 0 0 0 28.672 28.745h676.425a28.526 28.526 0 0 0 28.745-28.745 28.526 28.526 0 0 0-28.745-28.672zM512.293 17.700000000000045a28.526 28.526 0 0 0-28.746 28.673v675.84a28.526 28.526 0 0 0 28.746 28.672c16.31 0 28.745-12.435 28.745-28.746v-676.352a28.453 28.453 0 0 0-28.745-28.086z"  horiz-adv-x="1024" />

    
    <glyph glyph-name="hengxuxian" unicode="&#58958;" d="M563.2 896h26503.424l-563.2-1024H0zM39354.624 896h26503.424l-563.2-1024H38791.68zM29370.624 896h7628.8l-562.944-1024h-7628.8z"  horiz-adv-x="66048" />

    
    <glyph glyph-name="hengxian" unicode="&#58881;" d="M-34.13333333 433.06666667h1092.26666666v-13.01333334H-34.13333333z"  horiz-adv-x="1024" />

    
    <glyph glyph-name="xiugai" unicode="&#59533;" d="M324.266667 372.62222199999997c0 5.688889 0 5.688889 0 0l455.111111 455.111111c11.377778 11.377778 34.133333 22.755556 51.2 22.755556 22.755556 0 45.511111-11.377778 62.577778-28.444445l39.822222-39.822222c17.066667-17.066667 28.444444-39.822222 28.444444-62.577778 0-17.066667-5.688889-39.822222-22.755555-51.2l-449.422223-455.111111h-5.688888l-170.666667-45.511111h-5.688889c-5.688889 0-17.066667 5.688889-22.755556 5.688889-5.688889 5.688889-11.377778 17.066667-5.688888 28.444445l45.511111 170.666666z m500.622222 403.911111L415.288889 366.93333299999995l62.577778-62.577777 415.288889 415.288888-68.266667 56.888889zM341.333333 230.39999999999998l79.644445 22.755556-56.888889 62.577777-22.755556-85.333333zM978.488889 463.644444v-432.355555c0-62.577778-51.2-108.088889-108.088889-108.088889H153.6c-56.888889 0-108.088889 51.2-108.088889 108.088889V736.711111c0 62.577778 51.2 113.777778 108.088889 113.777778h460.8c22.755556 0 39.822222-17.066667 39.822222-45.511111 0-22.755556-17.066667-45.511111-39.822222-45.511111h-455.111111c-17.066667 0-28.444444-11.377778-28.444445-28.444445v-699.733333c0-17.066667 11.377778-28.444444 28.444445-28.444445h705.422222c17.066667 0 28.444444 11.377778 28.444445 28.444445V463.644444c0 22.755556 17.066667 45.511111 45.511111 45.511112 22.755556-5.688889 39.822222-22.755556 39.822222-45.511112z"  horiz-adv-x="1024" />

    
    <glyph glyph-name="delete" unicode="&#59008;" d="M915.202233 675.342545H108.830691a36.940588 36.940588 0 1 0 0 73.914099h806.371542a36.940588 36.940588 0 1 0 0-73.914099z m-292.429856 146.74171h-219.30593a36.940588 36.940588 0 1 0 0 73.914099h219.30593a36.743044 36.743044 0 0 0 37.105207-36.940588 37.434446 37.434446 0 0 0-37.105207-37.039359zM183.041105 602.514934a36.71012 36.71012 0 0 0 37.105207-36.940588v-547.820352a72.959307 72.959307 0 0 1 73.091002-72.827611h73.123926V565.508499a37.105207 37.105207 0 0 0 74.17749 0v-620.647964h146.214928V565.508499a37.105207 37.105207 0 0 0 74.210414 0v-620.647964h73.091002a72.959307 72.959307 0 0 1 73.091002 72.827611V565.508499a37.105207 37.105207 0 0 0 74.177489 0v-547.820353a145.951537 145.951537 0 0 0-146.214927-145.655222H295.377366a145.951537 145.951537 0 0 0-146.214928 145.655222V565.508499A32.364169 32.364169 0 0 0 183.008181 602.4490860000001z"  horiz-adv-x="1024" />

    
    <glyph glyph-name="sandian" unicode="&#59914;" d="M400 832v-224h224V832h-224z m0-563.1872h224v224h-224v-224z m0-332.8128h224v224h-224v-224z"  horiz-adv-x="1024" />

    
    <glyph glyph-name="liebiao" unicode="&#58892;" d="M128 832h288a64 64 0 0 0 64-64v-288a64 64 0 0 0-64-64H128a64 64 0 0 0-64 64V768a64 64 0 0 0 64 64z m0-96v-224a32 32 0 0 1 32-32h224a32 32 0 0 1 32 32V736a32 32 0 0 1-32 32H160a32 32 0 0 1-32-32zM128 352h288a64 64 0 0 0 64-64v-288a64 64 0 0 0-64-64H128a64 64 0 0 0-64 64v288a64 64 0 0 0 64 64z m0-96v-224a32 32 0 0 1 32-32h224a32 32 0 0 1 32 32v224a32 32 0 0 1-32 32H160a32 32 0 0 1-32-32zM544 736m32 0l352 0q32 0 32-32l0 0q0-32-32-32l-352 0q-32 0-32 32l0 0q0 32 32 32ZM544 256m32 0l352 0q32 0 32-32l0 0q0-32-32-32l-352 0q-32 0-32 32l0 0q0 32 32 32ZM544 576m32 0l352 0q32 0 32-32l0 0q0-32-32-32l-352 0q-32 0-32 32l0 0q0 32 32 32ZM544 96m32 0l352 0q32 0 32-32l0 0q0-32-32-32l-352 0q-32 0-32 32l0 0q0 32 32 32Z"  horiz-adv-x="1024" />

    
    <glyph glyph-name="yincang" unicode="&#58952;" d="M944.1 433.1c-0.2 0.1-0.4 0.2-0.5 0.4-3.7 2.8-17 12.8-34.4 24.8-1.6 1.1-2 2.7-2 3.5-0.1 0.8 0 2.3 1.4 3.7 13.5 13 26.6 26.6 39 40.6 0.6 0.6 1 1.2 1.5 1.8 12.5 16.6 13 39.2 1.2 56.3-2 2.9-4.4 5.4-7.2 7.3-5.4 3.8-11.7 5.2-18 4.2-12-1.9-20.8-12.1-26.4-19.7-46.3-58.6-205.3-210.2-385.6-210.3-48 0.5-95.1 8.9-140.1 25l-39.7 16.1c-37.8 17.1-74 38-107.5 62.2l-28.1 21.1c-25.5 19.6-49.1 41.8-70 66-0.7 0.8-1.4 1.6-2.2 2.3l-1.8 1.7c-6.2 5.8-11.5 10.8-17.8 13.5-5.3 2.3-15.8 4.6-26.6-5-19-17-14.2-41.3-3.3-58.4 1.1-1.7 2.4-3.3 3.8-4.8 15.9-16 32.7-31.5 50.1-46 1.5-1.3 1.7-2.9 1.7-3.7 0-0.8-0.3-2.4-2-3.6-12.7-9-22.1-15.9-24.7-17.8-0.1 0-0.2-0.1-0.7-0.4-7.8-4.5-13.3-11.7-15.5-20.2-2.4-8.9-0.8-18.4 4.3-26.1 9.5-15.5 29.7-20.8 46-12.1 5.6 3 11.8 7.6 20.5 14 7.4 5.5 16.6 12.3 28.2 20.1 1.7 1.2 4 1.1 5.8-0.1 28.8-19.9 59.4-37.9 90.8-53.6 1.6-0.8 2.3-2.2 2.5-2.9 0.2-0.7 0.5-2.1-0.4-3.6l-28.7-48.3c-4.6-7.6-5.8-16.6-3.5-25.1 2.3-8.6 7.9-15.8 15.9-20.3l0.2-0.1c16.2-8.9 37-3.5 46.5 12l32.9 56.2c1.2 2.1 3.8 2.9 6.1 2.1 38.2-14 78.1-23.2 118.7-27.4 2.6-0.3 4.5-2.3 4.5-4.7V225c0-18.3 15.4-33.3 34.3-33.3s34.3 14.9 34.3 33.3v49.6c0 2.4 1.9 4.4 4.5 4.7 40.1 4.2 79.5 13.7 117 28.2 2.3 0.9 5 0 6.2-2l34.2-58.5 0.1-0.1c9.5-15.7 29.7-21.1 46.1-12.4l0.3 0.2c7.9 4.5 13.5 11.7 15.8 20.3 2.3 8.5 1.1 17.4-3.5 25L737 333.6c-1.3 2.2-0.5 5.1 1.9 6.4 38.7 21.1 75.7 45.8 110 73.3 1.7 1.4 4.2 1.5 6 0.3 25.1-16.5 45.5-31.2 51.1-35.4 1.9-1.4 3.8-2.5 5.8-3.3 15.9-6.7 34.5-0.9 43.3 13.6 9.2 15.3 4.4 34.9-11 44.6z"  horiz-adv-x="1024" />

    
    <glyph glyph-name="xianshi" unicode="&#59084;" d="M942.2 409.8C847.4 609.5 704.1 710 512 710c-192.2 0-335.4-100.5-430.2-300.3-7.7-16.2-7.7-35.2 0-51.5C176.6 158.5 319.9 58 512 58c192.2 0 335.4 100.5 430.2 300.3 7.7 16.2 7.7 35 0 51.5zM512 130c-161.3 0-279.4 81.8-362.7 254C232.6 556.2 350.7 638 512 638c161.3 0 279.4-81.8 362.7-254C791.5 211.8 673.4 130 512 130zM508 560c-97.2 0-176-78.8-176-176s78.8-176 176-176 176 78.8 176 176-78.8 176-176 176z m0-288c-61.9 0-112 50.1-112 112s50.1 112 112 112 112-50.1 112-112-50.1-112-112-112z"  horiz-adv-x="1024" />

    
    <glyph glyph-name="xuanti" unicode="&#59005;" d="M956.7 563.5H385c-30.4 0-55.2-26.7-55.2-59.5v-366.7c0-32.8 24.7-59.5 55.2-59.5h571.7c30.4 0 55.2 26.7 55.2 59.5V504c0 32.8-24.7 59.5-55.2 59.5zM987 137.39999999999998c0-18-13.6-32.6-30.3-32.6H385c-16.7 0-30.3 14.6-30.3 32.6V504c0 18 13.6 32.6 30.3 32.6h571.7c16.7 0 30.3-14.6 30.3-32.6v-366.6zM401.6 245.29999999999995c2.9 0 5.3 2.6 5.3 5.8v37.4c0 3.2-2.4 5.8-5.3 5.8s-5.3-2.6-5.3-5.8v-37.4c0-3.2 2.4-5.8 5.3-5.8zM908.6 498.3H433.2c-20.4 0-36.9-17.8-36.9-39.8v-134.9c0-3.2 2.4-5.8 5.3-5.8s5.3 2.6 5.3 5.8V458.5c0 15.6 11.7 28.2 26.2 28.2h475.4c14.5 0 26.2-12.6 26.2-28.2v-273.7c0-15.6-11.7-28.2-26.2-28.2H433.2c-14.5 0-26.2 12.6-26.2 28.2v31.7c0 3.2-2.4 5.8-5.3 5.8s-5.3-2.6-5.3-5.8v-31.7c0-22 16.5-39.8 36.9-39.8h475.4c20.4 0 36.9 17.8 36.9 39.8V458.5c-0.1 22-16.6 39.8-37 39.8zM510.7-64.20000000000005H831c6.9 0 12.5 6 12.5 13.4s-5.6 13.4-12.5 13.4H510.7c-6.9 0-12.5-6-12.5-13.4 0.1-7.4 5.6-13.4 12.5-13.4zM658.4 11.899999999999977v-55.7h24.9v55.7c0 7.4-5.6 13.4-12.5 13.4-6.8 0.1-12.4-6-12.4-13.4zM135.6 754.2h7.1c2.8 0 5.4-1.4 7-3.7l63.9-93h0.7v88.2c0 4.7 3.8 8.5 8.5 8.5h2.9c4.7 0 8.5-3.8 8.5-8.5v-113c0-4.7-3.8-8.5-8.5-8.5h-6.4c-2.8 0-5.4 1.4-7 3.7l-64.6 94h-0.7v-89.3c0-4.7-3.8-8.5-8.5-8.5h-2.9c-4.7 0-8.5 3.8-8.5 8.5v113c0.1 4.8 3.9 8.6 8.5 8.6zM268.3 754.2h76.4c4.7 0 8.5-3.8 8.5-8.5s-3.8-8.5-8.5-8.5h-56.6c-4.7 0-8.5-3.8-8.5-8.5v-20.9c0-4.7 3.8-8.5 8.5-8.5h52.2c4.7 0 8.5-3.8 8.5-8.5s-3.8-8.5-8.5-8.5h-52.2c-4.7 0-8.5-3.8-8.5-8.5v-24.4c0-4.7 3.8-8.5 8.5-8.5h59.7c4.7 0 8.5-3.8 8.5-8.5s-3.8-8.5-8.5-8.5h-79.5c-4.7 0-8.5 3.8-8.5 8.5v113c0 5 3.8 8.8 8.5 8.8zM380.4 754.2c3.9 0 7.3-2.6 8.2-6.4l23.7-94.8h0.7l24.9 94.9c1 3.7 4.3 6.3 8.2 6.3h7.7c3.8 0 7.2-2.6 8.2-6.3l24.9-94.9h0.7l23.7 94.8c0.9 3.8 4.3 6.4 8.2 6.4h4.5c5.6 0 9.7-5.4 8.1-10.8l-32.6-113c-1-3.6-4.4-6.1-8.1-6.1h-8.2c-3.8 0-7.2 2.6-8.2 6.3l-24.7 94h-0.7l-24.7-94c-1-3.7-4.3-6.3-8.2-6.3h-8.4c-3.8 0-7.1 2.5-8.1 6.1l-32.4 113c-1.6 5.4 2.5 10.8 8.1 10.8h4.5zM300.9 504.3H128.3c-0.6 0-1.1 0.5-1.1 1.1v9.3c0 0.6 0.5 1.1 1.1 1.1h172.6c0.6 0 1.1-0.5 1.1-1.1v-9.3c0-0.6-0.5-1.1-1.1-1.1zM300.9 390.9H128.3c-0.6 0-1.1 0.5-1.1 1.1v9.3c0 0.6 0.5 1.1 1.1 1.1h172.6c0.6 0 1.1-0.5 1.1-1.1v-9.3c0-0.6-0.5-1.1-1.1-1.1zM300.9 277.4H128.3c-0.6 0-1.1 0.5-1.1 1.1v9.3c0 0.6 0.5 1.1 1.1 1.1h172.6c0.6 0 1.1-0.5 1.1-1.1v-9.3c0-0.6-0.5-1.1-1.1-1.1zM300.9 163.89999999999998H128.3c-0.6 0-1.1 0.5-1.1 1.1v9.3c0 0.6 0.5 1.1 1.1 1.1h172.6c0.6 0 1.1-0.5 1.1-1.1v-9.3c0-0.6-0.5-1.1-1.1-1.1zM413.3 9c0 6.9-5.6 12.5-12.5 12.5H88.9c-18 0-32.6 13.6-32.6 30.3V777c0 16.7 14.6 30.3 32.6 30.3h481.9c18 0 32.6-13.6 32.6-30.3v-178.6c0-7.4 6-13.4 13.4-13.4s13.4 6 13.4 13.4V777c0 30.4-26.7 55.2-59.5 55.2H88.9c-32.8 0-59.5-24.7-59.5-55.2v-725.3c0-30.4 26.7-55.2 59.5-55.2h311.9c6.9 0.1 12.5 5.6 12.5 12.5z"  horiz-adv-x="1024" />

    
    <glyph glyph-name="kaitibaogao" unicode="&#58886;" d="M835 715.1c0 45.6-37.7 82.8-84.3 82.8H203.1c-46.5 0-84.3-37-84.3-82.8v-662.2c0-45.6 37.7-82.8 84.3-82.8h232c11.4 0 20.7 9.6 20.7 20.7 0 11.4-9.6 20.7-20.7 20.7h-232c-23.1-0.2-41.9 18.3-42.1 41.4V715.1c0 22.8 18.9 41.4 42.1 41.4h547.6c23.2 0 42.1-18.6 42.1-41.4v-268.9c0-11.5 8.9-20.8 21.1-20.8 11.5 0.1 20.8 9.3 21 20.8V715.1h0.1zM634.2-5.3l258.6 254.8c7.9 7.7 12.4 18.3 12.4 29.3s-4.5 21.6-12.4 29.3l-55.9 55c-16.6 16.2-43.1 16.2-59.7 0L519 108.5c-12.2-12-21-33.1-21-50.2v-42.8c0-22.9 18.8-41.6 42.2-41.6h43.2c18.8 0.7 36.9 8.1 50.8 20.8zM604.4 24c-6-4.9-13.4-7.9-21.1-8.6h-43.2v43c0 6.1 4.4 16.7 8.7 21L807.1 334v-0.1l55.9-55c0.1-0.1 0.1-0.1 0-0.2L604.4 24zM266.3 321.9c0 11.4 9.6 20.7 20.9 20.7h168.7c11.6 0 21-9.2 21-20.7 0-11.4-9.6-20.7-21-20.7H287.3c-5.5 0-10.8 2.1-14.8 6-3.9 3.9-6.1 9.2-6.2 14.7z m0 124.2c0 11.4 9.4 20.7 21.2 20.7H561c11.7 0 21.2-9.2 21.2-20.7 0-11.4-9.5-20.7-21.2-20.7H287.5c-5.6-0.1-10.9 2.1-14.9 5.9-4 3.9-6.3 9.2-6.3 14.8z m0 124.1c0 11.4 9.4 20.7 20.9 20.7h337.3c11.6 0 20.9-9.2 20.9-20.7 0-11.4-9.4-20.7-20.9-20.7H287.2c-5.5 0-10.8 2.1-14.7 6-4 3.9-6.2 9.2-6.2 14.7z"  horiz-adv-x="1024" />

    
    <glyph glyph-name="chengjichaxun" unicode="&#58944;" d="M277.333333 445.866667c2.133333-17.066667 17.066667-17.066667 29.866667-23.466667 2.133333-2.133333 6.4-4.266667 6.4-4.266667 2.133333 0 4.266667 2.133333 4.266667 4.266667 0 4.266667-2.133333 6.4-2.133334 12.8-2.133333 21.333333 19.2 72.533333 29.866667 93.866667 42.666667 93.866667 42.666667 93.866667 40.533333 102.4 0 4.266667-10.666667 21.333333-17.066666 21.333333-10.666667-2.133333-44.8-27.733333-53.333334-34.133333-6.4-6.4-12.8-10.666667-12.8-19.2 0-2.133333 0-6.4 4.266667-6.4 4.266667 2.133333 8.533333 4.266667 12.8 8.533333l25.6 10.666667h2.133333c-8.533333-12.8-32-51.2-51.2-93.866667-10.666667-17.066667-21.333333-55.466667-19.2-72.533333z m311.466667 206.933333c-2.133333 6.4-19.2 21.333333-32 21.333333-21.333333-2.133333-70.4-34.133333-96-68.266666-21.333333-29.866667-40.533333-74.666667-38.4-110.933334 4.266667-29.866667 25.6-57.6 57.6-51.2 78.933333 12.8 125.866667 106.666667 119.466667 170.666667-2.133333 12.8-4.266667 29.866667-21.333334 32 4.266667 2.133333 10.666667 2.133333 10.666667 6.4z m-46.933333-123.733333L512 494.933333c-6.4-6.4-25.6-23.466667-36.266667-23.466666-10.666667-2.133333-12.8 17.066667-12.8 23.466666-2.133333 34.133333 19.2 85.333333 74.666667 125.866667 0-2.133333 2.133333-6.4 4.266667-6.4 4.266667 0 10.666667 12.8 19.2 14.933333 10.666667 2.133333 14.933333-10.666667 14.933333-17.066666 2.133333-23.466667-21.333333-66.133333-34.133333-83.2z m234.666666 145.066666c-2.133333 6.4-19.2 21.333333-32 21.333334-21.333333-2.133333-68.266667-34.133333-93.866666-70.4-21.333333-29.866667-40.533333-74.666667-38.4-110.933334 4.266667-27.733333 23.466667-57.6 53.333333-51.2 78.933333 14.933333 128 106.666667 121.6 170.666667-2.133333 12.8-4.266667 29.866667-21.333333 32 4.266667 2.133333 10.666667 4.266667 10.666666 8.533333z m-46.933333-125.866666l-29.866667-34.133334c-6.4-6.4-25.6-23.466667-36.266666-23.466666-10.666667-2.133333-12.8 17.066667-12.8 23.466666-2.133333 34.133333 19.2 85.333333 74.666666 125.866667 0-2.133333 2.133333-6.4 4.266667-6.4 4.266667 0 10.666667 12.8 19.2 14.933333 10.666667 2.133333 14.933333-10.666667 14.933333-17.066666 2.133333-21.333333-21.333333-64-34.133333-83.2zM330.666667 315.733333c198.4 70.4 428.8 89.6 428.8 89.6-25.6 0-76.8-4.266667-76.8-4.266666 12.8 2.133333 38.4 4.266667 38.4 4.266666-275.2-17.066667-424.533333-89.6-424.533334-89.6s-10.666667-6.4 0-10.666666c4.266667-2.133333 34.133333 10.666667 34.133334 10.666666z m526.933333-313.6l-74.666667 76.8c-2.133333 2.133333-4.266667 2.133333-6.4 4.266667 49.066667 61.866667 38.4 151.466667-23.466666 200.533333s-151.466667 38.4-200.533334-23.466666-38.4-151.466667 23.466667-200.533334c51.2-40.533333 125.866667-40.533333 177.066667 0 0-2.133333 2.133333-4.266667 4.266666-6.4l74.666667-76.8c6.4-6.4 19.2-6.4 25.6 0 8.533333 8.533333 8.533333 19.2 0 25.6z m-192 61.866667c-59.733333 0-106.666667 46.933333-106.666667 106.666667s46.933333 106.666667 106.666667 106.666666 106.666667-46.933333 106.666667-106.666666-46.933333-106.666667-106.666667-106.666667zM554.666667-74.666667H256c-27.733333 0-55.466667 10.666667-74.666667 32S149.333333 4.266667 149.333333 32v725.333333c0 27.733333 10.666667 55.466667 32 74.666667 19.2 21.333333 46.933333 32 74.666667 32h554.666667c27.733333 0 55.466667-10.666667 74.666666-32 21.333333-19.2 32-46.933333 32-74.666667v-512c0-12.8-8.533333-21.333333-21.333333-21.333333s-21.333333 8.533333-21.333333 21.333333v512c0 17.066667-6.4 32-19.2 44.8-12.8 12.8-27.733333 19.2-44.8 19.2H256c-17.066667 0-34.133333-6.4-44.8-19.2C198.4 789.333333 192 774.4 192 757.333333v-725.333333c0-17.066667 6.4-34.133333 19.2-44.8 12.8-12.8 27.733333-19.2 44.8-19.2h298.666667c12.8 0 21.333333-8.533333 21.333333-21.333333s-8.533333-21.333333-21.333333-21.333334z"  horiz-adv-x="1024" />

    
    <glyph glyph-name="zhongqijiancha" unicode="&#58960;" d="M988.604645 141.858592H547.17742v-197.530639h231.390945c19.526353 0 35.322954-16.08913 35.322953-35.981145a35.615484 35.615484 0 0 0-35.322953-35.981146H245.286833a35.615484 35.615484 0 0 0-35.322953 35.981146c0 19.892015 15.7966 35.981146 35.322953 35.981145h231.390945V141.858592H35.250553A35.688616 35.688616 0 0 0 0.000731 177.839737V860.018854c0 19.818883 15.7966 35.981146 35.249822 35.981146h953.354092c19.453221 0 35.249821-16.162263 35.249822-35.981146v-682.179117a35.688616 35.688616 0 0 0-35.249822-35.981145zM953.281691 824.037709H70.573507v-610.216826h882.708184V824.037709zM367.271693 593.231824a35.542351 35.542351 0 0 0 27.497786 10.604199c10.238537-0.731324 19.672618-5.923725 25.81574-14.260819l101.873447-138.439652 227.953721 215.521211a34.737895 34.737895 0 0 0 49.876303-1.901442c13.236966-14.55335 12.43251-37.297529-1.901442-50.827025l-256.694758-242.726468a34.59163 34.59163 0 0 0-52.143408 4.753607L388.772621 512.932438 274.539797 394.823597a34.884159 34.884159 0 0 0-49.876303-0.365662 36.493072 36.493072 0 0 0-0.365662 50.900157l142.973861 147.873732z"  horiz-adv-x="1024" />

    
    <glyph glyph-name="lunwen" unicode="&#58880;" d="M840.632558 123.57854299999997v-179.23969h-24.187039L628.823318-128l-173.952992 73.76769v0.19845H434.207752V118.02195300000005l-105.67045 36.578233a67.734822 67.734822 0 0 0 0 128.015876l278.670884 96.517954a67.70307 67.70307 0 0 0 44.373333 0l278.60738-96.517954a67.734822 67.734822 0 0 0 44.436837-76.609488v-154.639876a33.87138 33.87138 0 0 0-67.742759 0v95.176434l-66.250419-22.964589z m-67.734822-23.440869l-121.316217-41.999876a67.798326 67.798326 0 0 0-44.373333 0l-105.265612 36.451225v-95.239938l128.023814-54.256124 142.931348 55.073737V100.21705399999996v-0.07938z m134.318636 118.204528l0.071442 0.539782-277.924713 96.184559-278.60738-96.446512 278.670884-96.462388 277.789767 96.184559zM264.866729 594.967814a33.87138 33.87138 0 0 0 0 67.74276h410.965333a33.879318 33.879318 0 0 0 0-67.74276H264.866729zM840.632558 789.099163v-380.546977a33.87138 33.87138 0 0 0-67.74276 0v380.546977h-609.637209v-812.849613h203.212403a33.87138 33.87138 0 0 0 0-67.742759h-203.212403a67.734822 67.734822 0 0 0-67.74276 67.734821v812.849613a67.734822 67.734822 0 0 0 67.74276 67.734822h609.637209a67.718946 67.718946 0 0 0 67.74276-67.726884zM264.866729 459.490233a33.87138 33.87138 0 0 0 0 67.742759H535.813953a33.87138 33.87138 0 0 0 0-67.742759H264.866729z"  horiz-adv-x="1024" />

    
    <glyph glyph-name="renwushuxiazai" unicode="&#58926;" d="M407.2 8.399999999999977H175.6c-37.2 0-67.6 30.4-67.6 67.6V812.8c0 37.2 30.4 67.6 67.6 67.6h443.6c10 0 18-8 18-18s-8-18-18-18H175.6c-17.2 0-31.6-14-31.6-31.6v-737.2c0-17.2 14-31.6 31.6-31.6h231.6c10 0 18-8 18-18s-8-17.6-18-17.6zM839.2 593.2s-0.4 0 0 0h-186c-37.2 0-67.6 30.4-67.6 67.6V846.8c0 13.6 8 26 20.8 31.2 12.8 5.2 27.2 2.4 36.8-7.2l217.6-217.6c7.6-6.4 12.4-16 12.4-26-0.4-18.8-15.6-34-34-34z m-217.6 248v-180.4c0-17.2 14-31.6 31.6-31.6h180.4l-212 212zM434.4 587.6H256.8c-10 0-18 8-18 18s8 18 18 18h177.6c10 0 18-8 18-18s-8-18-18-18zM612 479.2H256.8c-10 0-18 8-18 18s8 18 18 18H612c10 0 18-8 18-18s-8-18-18-18zM612 380.79999999999995H256.8c-10 0-18 8-18 18s8 18 18 18H612c10 0 18-8 18-18s-8-18-18-18zM434.4 274.79999999999995H256.8c-10 0-18 8-18 18s8 18 18 18h177.6c10 0 18-8 18-18s-8-18-18-18zM702-122.79999999999995c-9.6 0-18 4-24.4 10.8l-167.6 188c-8.4 9.6-10.4 22.8-5.2 34.4 5.2 11.6 16.8 18.8 29.2 18.8h67.2V260v0.4c1.2 37.6 28.8 57.2 55.2 57.2H736c28 0 44.8-22.8 49.6-45.2 0.4-2 0.8-4 0.8-6.4v-136.8h68c12.4 0 23.6-7.2 28.8-18.4 5.2-11.2 3.6-24.4-4-34l-152-188.4c-6-7.2-14.8-11.6-24-12-0.8 0.8-0.8 0.8-1.2 0.8z m2.8 34.4z m-162 181.6l158.8-178.4 144 178.4h-78c-4.8 0-9.2 2-12.8 5.2-3.2 3.2-5.2 8-5.2 12.8v154.4c-0.8 2.8-4.4 16-14 16H656c-17.6 0-18.8-19.6-19.2-22v-148.4c0-10-8-18-18-18h-76z m207.2 172zM856.4 141.60000000000002c-10 0-18 8-18 18V624.4c0 10 8 18 18 18s18-8 18-18v-465.2c0-9.6-8.4-17.6-18-17.6z"  horiz-adv-x="1024" />

    
    <glyph glyph-name="biyesheji" unicode="&#58889;" d="M769.160533 807.799467L624.64 678.912l-16.5888-145.681067L409.873067 362.83733299999994l57.821866-62.395733 194.1504 178.858667 152.712534-4.164267 144.520533 137.216 49.5616 45.738667-185.821867 12.561066L835.1744 861.866667l-66.013867-54.0672zM343.8592 371.02933299999995c0-74.820267 57.821867-128.887467 132.096-128.887466A129.160533 129.160533 0 0 1 603.9552 371.02933299999995H475.9552l24.7808 129.024c-8.192 4.096-16.520533 4.096-24.7808 4.096a133.5296 133.5296 0 0 1-132.096-133.12z m132.096-216.2688c-119.739733 0-218.862933 99.874133-218.862933 220.501334 0 120.558933 99.1232 220.433067 218.862933 220.433066 13.380267 0 20.821333-1.2288 33.3824-2.048 4.437333-0.273067 8.874667-0.273067 11.0592 2.048 2.184533 2.2528 2.730667 4.096 3.549867 8.123734 16.384 79.940267 28.8768 140.424533 37.341866 181.384533l3.8912 18.8416 0.477867 2.389333a5.188267 5.188267 0 0 1-4.369067 6.212267c-5.597867 0.8192-3.140267 0.6144-6.144 0.955733a701.986133 701.986133 0 0 1-79.189333 6.690134C232.379733 820.224 34.133333 620.612267 34.133333 375.12533299999996c0-245.3504 198.2464-445.098667 441.821867-445.098666 239.547733 0 433.5616 191.419733 441.821867 428.4416a12.6976 12.6976 0 0 1-12.4928 12.765866l-166.5024 3.072a68.266667 68.266667 0 0 1-62.190934-37.546666c-61.2352-121.378133-128.068267-182.0672-200.635733-182.0672z"  horiz-adv-x="1092" />

    
    <glyph glyph-name="xuantihuizong" unicode="&#58971;" d="M940.8 451.2c-30.4 0-56-25.6-56-56v-401.6H113.6V756.8h444.8c30.4 0 56 25.6 56 56s-25.6 56-56 56H3.2v-985.6h993.6v512c0 30.4-25.6 56-56 56M425.6 489.6c-25.6 20.8-62.4 19.2-83.2-6.4-20.8-25.6-19.2-62.4 6.4-83.2L592 192 1014.4 744c19.2 25.6 14.4 62.4-11.2 83.2s-62.4 16-81.6-11.2L572.8 363.2l-147.2 126.4z"  horiz-adv-x="1026" />

    
    <glyph glyph-name="xueshengxinxiguanli" unicode="&#59157;" d="M844.3 142c22 22 35.6 52.3 35.6 85.8 0 66.9-54.4 121.4-121.3 121.4s-121.4-54.4-121.4-121.4c0-33.5 13.6-63.8 35.6-85.8-63.6-31.7-107.7-96.7-107.7-172.5 0-18.2 14.7-32.9 32.9-32.9h321c18.2 0 32.9 14.7 32.9 32.9 0.1 75.8-44 140.8-107.6 172.5z m-85.7 141.3c30.6 0 55.4-24.9 55.4-55.5s-24.8-55.5-55.4-55.5c-30.6 0-55.5 24.9-55.5 55.5s24.9 55.5 55.5 55.5zM635.3 2.5c14.5 54.4 64.3 94.6 123.3 94.6s108.7-40.2 123.2-94.6H635.3zM534 238.1c-23.2-1.4-47.2-2.3-71.8-2.3-223.2 0-324.3 57.8-324.3 75.4V417.7c74.9-39.6 202.4-58.3 324.3-58.3s249.5 18.7 324.3 58.3V406c0-18.2 14.7-32.9 32.9-32.9s32.9 14.7 32.9 32.9V690.1c0 97.1-202.2 141.3-390.2 141.3S72 787.2 72 690.1v-568.3c0-97.1 202.2-141.3 390.2-141.3 13.5 0 26.8 0.3 40 0.6 18.2 0.6 32.5 15.8 32 33.9-0.6 18.2-16.5 31.8-33.9 32-12.5-0.4-25.2-0.6-38-0.6-223.2 0-324.3 57.8-324.3 75.4V228.2c74.9-39.6 202.4-58.3 324.3-58.3 26.1 0 51.5 0.8 75.9 2.4 18.1 1.2 32 16.8 30.8 34.9-1.1 18.2-15.5 32.7-35 30.9z m-71.8 187.2c-223.2 0-324.3 57.8-324.3 75.4V607.1c74.9-39.6 202.4-58.3 324.3-58.3s249.5 18.7 324.3 58.3v-106.4c0-17.6-101.1-75.4-324.3-75.4z m0 340.2c223.2 0 324.3-57.8 324.3-75.4s-101.1-75.4-324.3-75.4-324.3 57.8-324.3 75.4 101.1 75.4 324.3 75.4z"  horiz-adv-x="1024" />

    
    <glyph glyph-name="pingshenhuizong" unicode="&#58893;" d="M908.8-128H115.2C64-128 19.2-83.20000000000005 19.2-32v832C19.2 851.2 64 896 115.2 896h793.6c51.2 0 96-44.8 96-96v-832c0-51.2-44.8-96-96-96zM115.2 838.4c-25.6 0-38.4-19.2-38.4-38.4v-832c0-25.6 19.2-38.4 38.4-38.4h793.6c25.6 0 38.4 19.2 38.4 38.4v832c0 25.6-19.2 38.4-38.4 38.4H115.2zM512 384C416 384 345.6 454.4 345.6 550.4V633.6h339.2v-83.2C678.4 454.4 608 384 512 384zM390.4 582.4v-32c0-64 51.2-115.2 121.6-115.2 64 0 121.6 51.2 121.6 115.2v32H390.4zM716.8 582.4H307.2c-12.8 0-25.6 12.8-25.6 25.6s12.8 25.6 25.6 25.6h416c12.8 0 25.6-12.8 25.6-25.6-6.4-12.8-12.8-25.6-32-25.6zM678.4 128H345.6v83.2c0 89.6 76.8 166.4 166.4 166.4s166.4-76.8 166.4-166.4V128z m-288 51.2h236.8v32c0 64-51.2 115.2-121.6 115.2-64 0-121.6-51.2-121.6-115.2v-32zM716.8 128H307.2c-12.8 0-25.6 12.8-25.6 25.6s12.8 25.6 25.6 25.6h416c12.8 0 25.6-12.8 25.6-25.6-6.4-19.2-12.8-25.6-32-25.6z"  horiz-adv-x="1024" />

    
    <glyph glyph-name="dabianpingshenanpaihuizong" unicode="&#58887;" d="M817.152-102.39999999999998H206.848A182.272 182.272 0 0 0 25.6 80.12800000000004v435.2a182.272 182.272 0 0 0 181.248 181.248h56.32V844.8a25.6 25.6 0 0 0 51.2 0v-173.824a25.6 25.6 0 0 0-25.6-25.6h-81.92A130.816 130.816 0 0 1 76.8 514.048v-435.2A130.816 130.816 0 0 1 206.848-51.200000000000045h610.304A130.816 130.816 0 0 1 947.2 80.12800000000004v435.2a130.816 130.816 0 0 1-130.048 131.328h-81.92a25.6 25.6 0 0 0-25.6 25.6V844.8a25.6 25.6 0 0 0 51.2 0v-148.224h56.32A182.272 182.272 0 0 0 998.4 514.048v-435.2A182.272 182.272 0 0 0 817.152-102.39999999999998zM616.704 645.376h-209.408a25.6 25.6 0 0 0 0 51.2h209.408a25.6 25.6 0 1 0 0-51.2zM327.936 388.352h-102.4a25.6 25.6 0 0 0 0 51.2h102.4a25.6 25.6 0 1 0 0-51.2zM563.2 388.352h-102.4a25.6 25.6 0 0 0 0 51.2h102.4a25.6 25.6 0 0 0 0-51.2zM799.232 388.352h-102.4a25.6 25.6 0 1 0 0 51.2h102.4a25.6 25.6 0 0 0 0-51.2zM327.936 145.15200000000004h-102.4a25.6 25.6 0 1 0 0 51.2h102.4a25.6 25.6 0 1 0 0-51.2zM563.2 145.15200000000004h-102.4a25.6 25.6 0 0 0 0 51.2h102.4a25.6 25.6 0 0 0 0-51.2zM739.328 119.03999999999996a33.536 33.536 0 0 0-24.32 10.24l-28.16 28.416a25.6 25.6 0 0 0 36.352 36.096l16.128-16.384 37.12 37.376A25.6 25.6 0 1 0 812.8 179.20000000000005l-49.152-51.2a33.536 33.536 0 0 0-24.32-8.96z m-12.032 46.08z m24.064 0z"  horiz-adv-x="1024" />

    
    <glyph glyph-name="jiaoshixinxiguanli" unicode="&#58901;" d="M614.4 343.04h240.64v-66.56H614.4v66.56zM614.4 481.28h240.64v-66.56H614.4v66.56zM614.4 204.8h240.64v-66.56H614.4V204.8zM931.84 706.56l-128 128c-30.72 30.72-81.92 51.2-122.88 51.2H240.64c-35.84 5.12-71.68-30.72-71.68-71.68V665.6h56.32V814.08c0 10.24 5.12 15.36 15.36 15.36H691.2v-230.4h230.4v-655.36c0-10.24-5.12-15.36-15.36-15.36h-665.6c-10.24 0-15.36 5.12-15.36 15.36v51.2h-56.32v-51.2c0-40.96 30.72-71.68 71.68-71.68h670.72c40.96 0 71.68 30.72 71.68 71.68v614.4c0 40.96-20.48 122.88-51.2 148.48z m-179.2-51.2V803.84l10.24-10.24 128-128 10.24-10.24H752.64zM547.84 71.68l-5.12-10.24H76.8V76.8c0 25.6 5.12 61.44 10.24 97.28 10.24 35.84 25.6 71.68 56.32 97.28l5.12 5.12h66.56v-30.72h-56.32c-20.48-20.48-35.84-51.2-40.96-81.92-5.12-25.6-10.24-56.32-10.24-76.8h414.72c0 25.6-5.12 56.32-15.36 87.04s-20.48 56.32-40.96 71.68h-66.56v25.6h76.8c20.48-20.48 40.96-51.2 51.2-87.04 15.36-35.84 25.6-76.8 20.48-112.64z m-230.4 40.96l-35.84 25.6 25.6 97.28-10.24 15.36v15.36h40.96v-15.36l-10.24-15.36 25.6-97.28-35.84-25.6z m107.52 276.48c-10.24-30.72-20.48-56.32-40.96-76.8s-40.96-30.72-71.68-35.84c-25.6 5.12-51.2 15.36-71.68 35.84s-35.84 46.08-46.08 76.8c-5.12 5.12-10.24 15.36-15.36 20.48-5.12 15.36-10.24 30.72-5.12 46.08v5.12l5.12 5.12s5.12 0 5.12 5.12c-10.24 51.2-5.12 97.28 25.6 122.88 25.6 15.36 66.56 5.12 107.52 10.24 112.64 15.36 112.64-40.96 122.88-138.24l5.12-5.12v-5.12c0-15.36 0-30.72-5.12-40.96 0-10.24-5.12-20.48-15.36-25.6z m-15.36 51.2v5.12h-5.12v10.24c0 10.24-5.12 56.32-5.12 61.44-15.36 0-25.6 5.12-35.84 10.24L358.4 512h-10.24v10.24L343.04 512H332.8l5.12 20.48c-35.84-25.6-102.4-25.6-112.64-15.36V512c0-5.12-5.12-56.32-5.12-61.44v-10.24H204.8c0-10.24 0-15.36 5.12-20.48 0-5.12 5.12-10.24 10.24-10.24h5.12v-5.12c5.12-35.84 15.36-56.32 30.72-71.68s30.72-25.6 51.2-25.6c20.48 5.12 40.96 15.36 56.32 30.72s25.6 40.96 35.84 71.68v5.12h5.12c5.12 0 5.12 5.12 10.24 10.24 0 5.12 5.12 10.24 5.12 20.48 0-5.12-5.12-5.12-10.24-5.12z"  horiz-adv-x="1024" />

    


  </font>
</defs>
</svg>
